<?xml version="1.0" standalone="no"?>
<!DOCTYPE svg PUBLIC "-//W3C//DTD SVG 20010904//EN"
 "http://www.w3.org/TR/2001/REC-SVG-20010904/DTD/svg10.dtd">
<svg version="1.0" xmlns="http://www.w3.org/2000/svg"
 width="23.000000pt" height="28.000000pt" viewBox="0 0 23.000000 28.000000"
 preserveAspectRatio="xMidYMid meet">

<g transform="translate(0.000000,28.000000) scale(0.100000,-0.100000)"
fill="#000000" stroke="none">
<path d="M87 273 c-4 -3 -1 -13 5 -21 10 -11 9 -17 -6 -28 -23 -16 -42 -8 -25
12 9 11 8 15 -5 20 -23 9 -56 -23 -56 -53 0 -19 4 -23 19 -18 18 5 19 3 8 -30
-8 -27 -8 -48 1 -80 6 -24 9 -52 5 -62 -6 -16 -5 -16 11 -4 13 11 20 11 28 3
15 -15 53 -15 79 -1 15 8 24 7 36 -3 15 -11 15 -11 6 6 -7 13 -6 26 4 48 15
29 14 75 -2 111 -6 15 -4 18 11 15 27 -4 30 33 5 56 -24 22 -61 15 -42 -8 17
-20 -2 -28 -25 -12 -15 11 -16 17 -6 28 6 8 9 18 5 21 -8 9 -48 9 -56 0z m78
-106 c23 -33 19 -84 -10 -112 -13 -14 -31 -25 -40 -25 -9 0 -27 11 -40 25 -27
26 -32 65 -16 109 16 39 79 41 106 3z"/>
<path d="M106 136 c-8 -34 -4 -40 24 -31 18 6 19 9 7 18 -8 7 -17 19 -19 27
-3 9 -7 4 -12 -14z"/>
</g>
</svg>
