<svg xmlns="http://www.w3.org/2000/svg" width="23.15" height="27.548" viewBox="0 0 23.15 27.548">
  <path id="Icon_awesome-apple" data-name="Icon awesome-apple" d="M19.636,16.808a5.742,5.742,0,0,1,3.075-5.215A6.608,6.608,0,0,0,17.5,8.849c-2.183-.172-4.57,1.273-5.443,1.273-.923,0-3.038-1.212-4.7-1.212C3.928,8.966.281,11.648.281,17.1A15.329,15.329,0,0,0,1.167,22.1c.787,2.257,3.629,7.792,6.593,7.7,1.55-.037,2.645-1.1,4.662-1.1,1.956,0,2.971,1.1,4.7,1.1,2.989-.043,5.56-5.074,6.31-7.337a6.1,6.1,0,0,1-3.795-5.652Zm-3.481-10.1A5.793,5.793,0,0,0,17.631,2.25,6.521,6.521,0,0,0,13.455,4.4a5.883,5.883,0,0,0-1.574,4.422,5.165,5.165,0,0,0,4.274-2.11Z" transform="translate(-0.281 -2.25)"/>
</svg>
