<svg xmlns="http://www.w3.org/2000/svg" width="18.965" height="16.443" viewBox="0 0 18.965 16.443">
  <g id="Shopping_Cart" data-name="Shopping Cart" transform="translate(0.5 0.479)">
    <path id="Shape" d="M0,1.4A1.363,1.363,0,0,0,.405,2.4a1.321,1.321,0,0,0,.977.411A1.32,1.32,0,0,0,2.359,2.4,1.362,1.362,0,0,0,2.764,1.4,1.363,1.363,0,0,0,2.359.411,1.321,1.321,0,0,0,1.382,0,1.322,1.322,0,0,0,.405.411,1.365,1.365,0,0,0,0,1.4Z" transform="translate(13.819 12.656)" fill="none" stroke="#d0d0d0" stroke-width="1"/>
    <path id="Shape-2" data-name="Shape" d="M17.76,1.612a.659.659,0,0,0-.486-.208H4.308q-.011-.077-.049-.28T4.2.8A1.959,1.959,0,0,0,4.119.51a.879.879,0,0,0-.14-.269.691.691,0,0,0-.216-.17A.65.65,0,0,0,3.455,0H.691A.66.66,0,0,0,.205.208.68.68,0,0,0,0,.7.68.68,0,0,0,.205,1.2.659.659,0,0,0,.691,1.4h2.2L4.8,10.431q-.021.044-.221.417t-.318.653a1.22,1.22,0,0,0-.119.433.681.681,0,0,0,.205.494.661.661,0,0,0,.486.208H15.892a.66.66,0,0,0,.486-.208.7.7,0,0,0,0-.987.659.659,0,0,0-.486-.209H5.96a2.139,2.139,0,0,0,.259-.7,1.2,1.2,0,0,0-.027-.241q-.027-.131-.065-.291t-.049-.236L17.35,8.424a.667.667,0,0,0,.443-.236.7.7,0,0,0,.173-.466V2.106A.681.681,0,0,0,17.76,1.612Z" transform="translate(0 0.021)" fill="none" stroke="#d0d0d0" stroke-width="1"/>
    <path id="Shape-3" data-name="Shape" d="M0,1.4A1.362,1.362,0,0,0,.4,2.4a1.321,1.321,0,0,0,.977.411A1.321,1.321,0,0,0,2.359,2.4a1.362,1.362,0,0,0,.4-.992,1.363,1.363,0,0,0-.4-.993A1.322,1.322,0,0,0,1.382,0,1.322,1.322,0,0,0,.4.411,1.364,1.364,0,0,0,0,1.4Z" transform="translate(4.146 12.656)" fill="none" stroke="#d0d0d0" stroke-width="1"/>
  </g>
</svg>
