<svg xmlns="http://www.w3.org/2000/svg" xmlns:xlink="http://www.w3.org/1999/xlink" width="20" height="22" viewBox="0 0 20 22">
  <defs>
    <clipPath id="clip-path">
      <path id="Combined_Shape" data-name="Combined Shape" d="M13,22H3a3,3,0,0,1-3-3V8a1,1,0,0,1,.386-.789l9-7a1,1,0,0,1,1.228,0l9,7A1,1,0,0,1,20,8V19a3,3,0,0,1-3,3Zm4-2a1,1,0,0,0,1-1V8.489L10,2.267,2,8.489V19a1,1,0,0,0,1,1H6V11a1,1,0,0,1,1-1h6a1,1,0,0,1,1,1v9Zm-5,0V12H8v8Z" transform="translate(1 1)" fill="#d1d1d1"/>
    </clipPath>
  </defs>
  <g id="Group_137" data-name="Group 137" transform="translate(-1 -1)" clip-path="url(#clip-path)">
    <g id="COLOR_black" data-name="COLOR/ black">
      <rect id="COLOR_black_background" data-name="COLOR/ black background" width="24" height="24" fill="#d1d1d1"/>
      <rect id="Rectangle" width="24" height="24" fill="#d1d1d1"/>
    </g>
  </g>
</svg>
