<svg xmlns="http://www.w3.org/2000/svg" width="20.571" height="22.523" viewBox="0 0 20.571 22.523">
  <g id="Group_238" data-name="Group 238" transform="translate(-38.5 -264.738)">
    <g id="Icon_feather-lock" data-name="Icon feather-lock" transform="translate(43.905 266.238)">
      <path id="Path_89" data-name="Path 89" d="M10.5,12.093V8.052A4.968,4.968,0,0,1,15.381,3a4.968,4.968,0,0,1,4.881,5.052v4.041" transform="translate(-10.5 -3)" fill="none" stroke="#000" stroke-linecap="round" stroke-linejoin="round" stroke-width="3"/>
    </g>
    <g id="Group_235" data-name="Group 235" transform="translate(40 268)">
      <path id="Path_88" data-name="Path 88" d="M6.452,16.5H20.119a1.91,1.91,0,0,1,1.952,1.864v6.523a1.91,1.91,0,0,1-1.952,1.864H6.452A1.91,1.91,0,0,1,4.5,24.887V18.364A1.91,1.91,0,0,1,6.452,16.5Z" transform="translate(-4.5 -8.989)" fill="none" stroke="#000" stroke-linecap="round" stroke-linejoin="round" stroke-width="3"/>
    </g>
  </g>
</svg>
