<svg xmlns="http://www.w3.org/2000/svg" width="11.977" height="23.965" viewBox="0 0 11.977 23.965">
  <path id="Icon_ionic-ios-phone-portrait" data-name="Icon ionic-ios-phone-portrait" d="M20.38,2.25H11.9a1.76,1.76,0,0,0-1.771,1.76V24.391A1.812,1.812,0,0,0,11.9,26.215h8.479A1.776,1.776,0,0,0,22.1,24.391V4.01A1.716,1.716,0,0,0,20.38,2.25ZM15.314,3.48h1.6a.214.214,0,0,1,0,.428h-1.6a.214.214,0,0,1,0-.428Zm.829,21.932a.931.931,0,1,1,.931-.931A.931.931,0,0,1,16.143,25.412Zm5-2.621H11.088a.107.107,0,0,1-.107-.107V5.085a.107.107,0,0,1,.107-.107H21.144a.107.107,0,0,1,.107.107v17.6A.107.107,0,0,1,21.144,22.791Z" transform="translate(-10.125 -2.25)"/>
</svg>
