<svg xmlns="http://www.w3.org/2000/svg" width="18" height="20" viewBox="0 0 18 20">
  <path id="Icon_awesome-upload" data-name="Icon awesome-upload" d="M10.406,15H7.594a.892.892,0,0,1-.844-.938V7.5H3.667a.793.793,0,0,1-.5-1.332L8.518.225a.634.634,0,0,1,.96,0l5.351,5.946a.793.793,0,0,1-.5,1.332H11.25v6.563A.892.892,0,0,1,10.406,15ZM18,14.692v4.376a.892.892,0,0,1-.844.938H.844A.892.892,0,0,1,0,19.068V14.692a.892.892,0,0,1,.844-.938H5.625v.313a2.088,2.088,0,0,0,1.969,2.188h2.813a2.088,2.088,0,0,0,1.969-2.188v-.313h4.781A.892.892,0,0,1,18,14.692ZM13.641,18.13a.707.707,0,1,0-.7.781A.748.748,0,0,0,13.641,18.13Zm2.25,0a.707.707,0,1,0-.7.781A.748.748,0,0,0,15.891,18.13Z" transform="translate(0 -0.005)" fill="#d1d1d1"/>
</svg>
